<svg xmlns="http://www.w3.org/2000/svg" viewBox="0 0 728 702.498" width="728" height="703">
  <g stroke-width="2" fill="none" stroke-opacity=".992">
    <path stroke="#f2e15f" d="M692.57 157.83q-9.26-15.83-21.74-31.18-20.41-25.09-41.2-46.17"/>
    <path stroke="#42a4ed" d="M282.45 85.31c-10.38 2.58-27.18 6.78-34.75-4.15q-3.79-5.47-.01-11.9"/>
    <path stroke="#448eea" d="M142.89 209.99c-4.61 5.28-9.8 9.89-16.92 6.33q-5.39-2.7-10.83-7.09-.62-.51-22.86-18.47c-8.53-6.89-14.03-12.08-18.17-21.48"/>
    <path stroke="#d6e388" d="M663.45 202.48c-27.84-31.31-49.31-55.84-72.31-87.53"/>
    <path stroke="#ace3ae" d="M630.93 233.83c-16.08-22.48-32.2-40.44-51.81-62.45q-8.63-9.69-25.43-30.26"/>
    <path stroke="#88e0cf" d="M601.3 255.25q-14.3-20.93-31.48-39.56c-16.81-18.23-32.85-35.18-49.12-55.78"/>
    <path stroke="#6bd8e3" d="M575.1 271.11q-17.63-13.19-27.07-23.74-16.77-18.73-33.85-37.19Q499.69 194.52 489 176"/>
    <path stroke="#4f78e6" d="M117.94 339.96q-.38 3.27-.21 5.43.73 9.21 2.95 30.54a.23.22-75.6 0 1-.35.21c-26.38-18.24-50.61-39.71-75.46-61.19q-14.88-12.85-32.09-21.89a.42.41 21.7 0 0-.59.25q-4.85 16.84-8.33 34.15"/>
    <path stroke="#55caeb" d="M479.52 324.55q-6.7-11.16-9.84-15.24-24.75-32.16-45.32-67.14-2.95-5.01-6.63-12.48-4.15-8.43.8-16.26"/>
    <path stroke="#e0e17f" d="M724.64 250.63q-6.13-6.41-21.53-23.52-5.74-6.38-14.75-10.84"/>
    <path stroke="#5198e8" d="M461.76 339.34q-1.86.55-2.17 1.74"/>
    <path stroke="#72d2d7" d="m459.59 341.08-10.4 8.75a.17.11-27.7 0 0-.07.13v.07a.13.07-22.8 0 0 .19.02q5.68-4.04 10.86-8.23.23-.18.2-.46-.03-.44-.35-.41"/>
    <path stroke="#5198e8" d="m460.02 340.95 1.46-1.21"/>
    <path stroke="#55caeb" d="M503.5 316.68q5.87 14.74 16.33 28.43c14.78 19.34 28.39 35.85 46.45 50.39"/>
    <path stroke="#cce192" d="M704.85 300.96c-19.21-17.84-35.73-35.13-49.88-56.85"/>
    <path stroke="#ace3ae" d="M694.55 316.05q-21.34-16.71-39.74-38.36-14.57-17.13-18.16-21.5"/>
    <path stroke="#48b9ed" d="M529 413.1c5.51 17.75 18.16 31.2 31.73 43.27 14.59 12.99 27.05 21.27 45.32 24.4"/>
    <path stroke="#83c9c4" d="m468.08 428.56-.31-.65a.18.18 0 0 0-.24-.09l-1.42.67a8.13.44-25.1 0 0-7.18 3.84l.09.19a8.13.44-25.1 0 0 7.55-3.05l1.42-.67a.18.18 0 0 0 .09-.24"/>
    <path stroke="#88e0cf" d="M664.55 347.39q-16.37-15.24-26.54-26.05-18.58-19.75-38.23-45.3"/>
    <path stroke="#6bd8e3" d="M637.31 366.29q-20.43-14.55-37.17-32.95-18.47-20.3-36.35-41.4"/>
    <path stroke="#4f78e6" d="M346.34 580.45c-2.16 6.31 1.28 10.85 5.85 14.1l19.65 13.97c15.53 11.21 33.34 27.88 49.68 39.28q17.46 12.17 36.88 22.27"/>
    <path stroke="#5c69e4" d="M383.31 696.09c-5.76-10.88-14.62-18.83-24.27-25.61q-20.67-14.53-41.65-29.49c-11.75-8.39-24.54-16.76-39.44-26.58q-20.99-13.82-52.22-36.72-33.36-24.46-58.34-47.99-33.97-32-75.06-73.81-10.6-10.78-33.57-31.76c-11.05-10.09-20.65-20.06-29.39-28.54-7.76-7.53-16.05-14.4-26.75-16.25a.5.49 7.1 0 0-.57.44c-.53 4.87-.14 9.7-.23 14.42q-.07 3.74.67 10.39.67 5.97 1.25 11.98"/>
    <path stroke="#6165e5" d="m3.74 416.57-.49 4.35"/>
    <path stroke="#77a8d3" d="M460.02 340.95q-.22.02-.43.13"/>
    <path stroke="#448eea" d="M537.06 563.9c2.19.72 4.31 1.43 6.24 2.59 8.51 5.09 17.57 8.74 26.27 13.47"/>
    <path stroke="#6661e5" d="M343.01 701.78q-12.52-8.62-17.66-12.42c-12.12-8.96-27.78-21.39-40.91-30.66-25.89-18.26-45.13-31.72-66.15-47.63-16.86-12.77-35.58-25.54-52-39.78-8.1-7.03-18.74-17.75-28.17-25.43-10.9-8.87-20.25-16.82-32.68-28.52-13.45-12.65-19.19-17.79-35.34-32.4-9.97-9.02-20.41-19.39-29.2-26.54-14.71-11.98-23.96-19.51-34.92-30.68a.16.15-72.7 0 0-.26.14l2.67 16.95a.03.02 9.2 0 1-.04.02h-.03a.15.09 85.8 0 1-.07-.1q-3.04-13.98-4.51-28.16"/>
  </g>
  <path fill="#fadf49" fill-opacity=".992" d="M689.39 0q10.16 16.61 14.69 37.15 2.45 11.13 3.47 19.51c.56 4.63.22 7.85 1.15 12.59q.5 2.59.15 22.58c-.02 1.44-.72 3.44-.76 4.7-.7 20.78-6.88 42.42-15.52 61.3q-9.26-15.83-21.74-31.18-20.41-25.09-41.2-46.17 5.62-6.34 11.41-12.75 4.58-5.05 6.13-7.22c2.57-3.59 5.01-5.99 7.85-9.9q14.32-19.77 17.49-25.6 6.96-12.85 14.4-25.01z"/>
  <path fill="#44afed" fill-opacity=".992" d="M282.45 85.31c-10.38 2.58-27.18 6.78-34.75-4.15q-3.79-5.47-.01-11.9 3.82-.69 19.04-2.56 4.83-.59 7.01-.68c7.73-.32 15.7-1.29 22.78-.75q5.44.42 13.24.94 20.07 1.34 40.04 6.66a.64.64 0 0 1-.12 1.26Q334.9 75.32 320 76.94q-15.39 1.67-37.55 8.37"/>
  <path fill="#4099ec" fill-opacity=".992" d="M247.69 69.26q-3.78 6.43.01 11.9c7.57 10.93 24.37 6.73 34.75 4.15q-38.28 12.17-69.97 36.92c-29.87 23.32-53.3 53.59-69.59 87.76-4.61 5.28-9.8 9.89-16.92 6.33q-5.39-2.7-10.83-7.09-.62-.51-22.86-18.47c-8.53-6.89-14.03-12.08-18.17-21.48q1.35-1.32 2.76-2.93 22.98-26.38 51.38-46.8 53.88-38.74 119.44-50.29"/>
  <path fill="#eae274" fill-opacity=".992" d="M692.57 157.83q-11.5 24.27-29.12 44.65c-27.84-31.31-49.31-55.84-72.31-87.53q20.22-15.89 38.49-34.47 20.79 21.08 41.2 46.17 12.48 15.35 21.74 31.18"/>
  <path fill="#c1e39b" fill-opacity=".992" d="M591.14 114.95c23 31.69 44.47 56.22 72.31 87.53q-14.95 17.08-32.52 31.35c-16.08-22.48-32.2-40.44-51.81-62.45q-8.63-9.69-25.43-30.26 19.4-12.01 37.45-26.17"/>
  <path fill="#97e2c1" fill-opacity=".992" d="M553.69 141.12q16.8 20.57 25.43 30.26c19.61 22.01 35.73 39.97 51.81 62.45q-1.97 1.52-3.99 3.09-12.44 9.68-25.64 18.33-14.3-20.93-31.48-39.56c-16.81-18.23-32.85-35.18-49.12-55.78z"/>
  <path fill="#79dedc" fill-opacity=".992" d="M520.7 159.91c16.27 20.6 32.31 37.55 49.12 55.78q17.18 18.63 31.48 39.56l-26.2 15.86q-17.63-13.19-27.07-23.74-16.77-18.73-33.85-37.19Q499.69 194.52 489 176z"/>
  <path fill="#4783e8" fill-opacity=".992" d="M74.11 169.28c4.14 9.4 9.64 14.59 18.17 21.48q22.24 17.96 22.86 18.47 5.44 4.39 10.83 7.09c7.12 3.56 12.31-1.05 16.92-6.33q-18.35 40.08-23.46 84.02-.52 4.52-.51 7.03.01 3.2-.78 6.33a5.55 5.51-38.1 0 0-.17 1.36l-.03 31.23q-.38 3.27-.21 5.43.73 9.21 2.95 30.54a.23.22-75.6 0 1-.35.21c-26.38-18.24-50.61-39.71-75.46-61.19q-14.88-12.85-32.09-21.89a.42.41 21.7 0 0-.59.25q-4.85 16.84-8.33 34.15 6.29-45.56 25.3-87.4 17.47-38.47 44.95-70.78"/>
  <path fill="#5dd2e9" fill-opacity=".992" d="M489 176q10.69 18.52 25.18 34.18 17.08 18.46 33.85 37.19 9.44 10.55 27.07 23.74c-20.95 12.03-44.96 23.58-63.72 33.78q-15.4 8.37-31.86 19.66-6.7-11.16-9.84-15.24-24.75-32.16-45.32-67.14-2.95-5.01-6.63-12.48-4.15-8.43.8-16.26 15.48-9.9 32.03-18.38Q469.59 185.29 489 176"/>
  <path fill="#eae274" fill-opacity=".992" d="M728 207.23v16.4q-.56 5.04-.98 10.08c-.5 5.96-1.4 11.25-2.38 16.92q-6.13-6.41-21.53-23.52-5.74-6.38-14.75-10.84 6.26-6.32 12-12.89 4.64-5.29 9.42-10.55 2.82-3.1 4.96-6.08 3.03-4.2 5.15-6.09a2.83 2.8-76.9 0 1 .78-.49c3.2-1.27 4.04 1.16 4.45 3.88q.64 4.22 1.1 6.23.58 2.49.78 6.25.29 5.35 1 10.7"/>
  <path fill="#4cc2ec" fill-opacity=".992" d="M418.53 213.43q-4.95 7.83-.8 16.26 3.68 7.47 6.63 12.48 20.57 34.98 45.32 67.14 3.14 4.08 9.84 15.24l-17.76 14.79q-1.86.55-2.17 1.74l-10.4 8.75a.17.11-27.7 0 0-.07.13v.07a.13.07-22.8 0 0 .19.02q5.68-4.04 10.86-8.23.23-.18.2-.46-.03-.44-.35-.41l1.46-1.21q.74-.18 1.43-.61 13.41-8.18 27.16-15.79 6.56-3.63 13.43-6.66 5.87 14.74 16.33 28.43c14.78 19.34 28.39 35.85 46.45 50.39-13.96 4.34-28.33 7.7-42.51 11.28q-12.57 3.18-33.38 10.54-3.79-11.22-10.48-18.69c-6.9-7.69-16.86-18.35-24-27.44-11.39-14.5-28.65-34.01-41.29-51.31q-17.48-23.93-27.77-40.49-7.74-12.45-11.82-28.95 1.58-2.2 2.62-3.29 18.27-19.3 40.88-33.72"/>
  <path fill="#d6df89" fill-opacity=".992" d="M724.64 250.63q-5.53 26.78-19.79 50.33c-19.21-17.84-35.73-35.13-49.88-56.85q17.65-12.77 33.39-27.84 9.01 4.46 14.75 10.84 15.4 17.11 21.53 23.52"/>
  <path fill="#c1e39b" fill-opacity=".992" d="M654.97 244.11c14.15 21.72 30.67 39.01 49.88 56.85l-10.3 15.09q-21.34-16.71-39.74-38.36-14.57-17.13-18.16-21.5z"/>
  <path fill="#44afed" fill-opacity=".992" d="M375.03 250.44q4.08 16.5 11.82 28.95 10.29 16.56 27.77 40.49c12.64 17.3 29.9 36.81 41.29 51.31 7.14 9.09 17.1 19.75 24 27.44q6.69 7.47 10.48 18.69-11.04 3.88-21.11 9.82-.27-.13-.4-.1a.2.16 40.2 0 0 .07.35q.1.02.26 0 .5.25.8.17c10.73-2.95 21.18-6.61 31.97-9.35q8.42-2.13 27.02-5.11c5.51 17.75 18.16 31.2 31.73 43.27 14.59 12.99 27.05 21.27 45.32 24.4q-19.05 8.13-35.59 11.1c-5.54 1-8.91 1.79-13 2.2q-7.93.79-8.92 1.05-3.22.85-5.99.84c-4.6-.02-8.36.86-13.22 1.08q-.21.01-1.4.39a7.11 7.06 33.3 0 1-1.62.33c-7.8.61-11.8 1.6-19.81 2.99q-10.9 1.88-23.41 6.63-44.88-44.35-89.7-88.79-16.52-16.39-33.61-37.61c-8.26-10.26-18.23-20.15-30.2-24.81a.65.65 0 0 1-.41-.67l1.71-18.29q10.15-46.24 40.34-82.5 1.78-2.13 3.81-4.27m93.05 178.12-.31-.65a.18.18 0 0 0-.24-.09l-1.42.67a8.13.44-25.1 0 0-7.18 3.84l.09.19a8.13.44-25.1 0 0 7.55-3.05l1.42-.67a.18.18 0 0 0 .09-.24"/>
  <path fill="#97e2c1" fill-opacity=".992" d="M636.65 256.19q3.59 4.37 18.16 21.5 18.4 21.65 39.74 38.36-13.1 17.63-30 31.34-16.37-15.24-26.54-26.05-18.58-19.75-38.23-45.3 18.86-9.03 36.87-19.85"/>
  <path fill="#79dedc" fill-opacity=".992" d="M599.78 276.04q19.65 25.55 38.23 45.3 10.17 10.81 26.54 26.05-13 10.58-27.24 18.9-20.43-14.55-37.17-32.95-18.47-20.3-36.35-41.4z"/>
  <path fill="#566de4" fill-opacity=".992" d="M117.94 339.96q-.06 3.16.18 4.18 1.11 4.54.82 9.14a5.57 5.43 41.6 0 0 .11 1.51q.19.89 1.79 11.87.93 6.42 1.99 11.67 10.77 53.4 42.08 98.76 6.39 9.27 10.81 14.44.71.82 1.13 1.5a1.01.01 58.4 0 0 .53.84q14.4 16.5 19.63 21.39 4.91 4.61 8.65 8.15 4.65 4.4 8.65 7.64 13.16 10.63 24 17.88 30.5 20.42 62.82 31.93 9.94 3.53 23.86 6.25 1.49.29 6.34.06 3.8-.18 6.2-1.03 4.93-1.75 8.81-5.69c-2.16 6.31 1.28 10.85 5.85 14.1l19.65 13.97c15.53 11.21 33.34 27.88 49.68 39.28q17.46 12.17 36.88 22.27-2.13.92-3.62 1.65-14.48 7.1-27.18 11.59-5.44 1.93-5.89 2.25a1.93 1.91-64.4 0 1-.95.34q-1.74.14-4.46 1.53a4.35 4.27 27.1 0 1-1.31.41q-2.77.39-5.79 1.89-.39.2-1.46.21a1.27 1.2 35.3 0 0-.35.05l-24.08 6.1c-5.76-10.88-14.62-18.83-24.27-25.61q-20.67-14.53-41.65-29.49c-11.75-8.39-24.54-16.76-39.44-26.58q-20.99-13.82-52.22-36.72-33.36-24.46-58.34-47.99-33.97-32-75.06-73.81-10.6-10.78-33.57-31.76c-11.05-10.09-20.65-20.06-29.39-28.54-7.76-7.53-16.05-14.4-26.75-16.25a.5.49 7.1 0 0-.57.44c-.53 4.87-.14 9.7-.23 14.42q-.07 3.74.67 10.39.67 5.97 1.25 11.98l-.49 4.35-1.19-7.07a2.11 1.86-50.9 0 1-.02-.49c.35-4.94-1.08-9.38-.92-14.91.09-3.14-.53-6.49-1.12-9.7v-22.44l1.3-18.61a1.89 1.61-40.6 0 1 .05-.32q.93-4.1.71-8.43a3.42 2.71-47.9 0 1 .04-.61l1.76-10.88q3.48-17.31 8.33-34.15a.42.41 21.7 0 1 .59-.25q17.21 9.04 32.09 21.89c24.85 21.48 49.08 42.95 75.46 61.19a.23.22-75.6 0 0 .35-.21q-2.22-21.33-2.95-30.54-.17-2.16.21-5.43"/>
  <path fill="#5dd2e9" fill-opacity=".992" d="M563.79 291.94q17.88 21.1 36.35 41.4 16.74 18.4 37.17 32.95c-22.19 12.81-46.38 22.47-71.03 29.21-18.06-14.54-31.67-31.05-46.45-50.39q-10.46-13.69-16.33-28.43 6.99-3.29 14.15-6.25 22.93-9.46 46.14-18.49"/>
  <path fill="#4099ec" fill-opacity=".992" d="m330.88 337.21-1.71 18.29a.65.65 0 0 0 .41.67c11.97 4.66 21.94 14.55 30.2 24.81q17.09 21.22 33.61 37.61 44.82 44.44 89.7 88.79-32.17 12.39-54.66 38.41-13.45-11.63-28.28-21.02c-20.94-13.27-30.15-18.53-45.62-30.8a1.61 1.58-78.1 0 1-.56-.88q-1.49-5.95-2.89-9.61-2.39-6.24-11.27-29.48c-11.74-30.69-15.93-61.76-11.66-93.54q.42-3.14.59-12.51z"/>
  <path fill="#4cc2ec" fill-opacity=".992" d="M461.76 339.34q-.18-.03-.28.4l-1.46 1.21q-.22.02-.43.13.31-1.19 2.17-1.74"/>
  <path fill="#4cc2ec" fill-opacity=".992" d="M460.02 340.95q.32-.03.35.41.03.28-.2.46-5.18 4.19-10.86 8.23a.13.07-22.8 0 1-.19-.02v-.07a.17.11-27.7 0 1 .07-.13l10.4-8.75q.21-.11.43-.13"/>
  <path fill="#4783e8" fill-opacity=".992" d="M428.43 545.79q-5.58 6.62-17.92 21.96-9.04 11.24-21.98 23.95a3.48 3.34 5.5 0 1-.62.49q-2.77 1.71-4.11 4.04a.74.74 0 0 0 .78 1.1c3.91-.74 8.78.14 12.59.06q17.94-.38 18.48-.33 2.75.25 7.68-.56 3.23-.53 7.73-.44c2.75.05 5.01-.92 7.73-.95q2.19-.03 4.32-.69c1.86-.58 3.95-.14 5.83-.73q1.55-.49 7.47-1.42 3.37-.53 7.45-1.48 12.63-2.94 14.67-3.5 30.68-8.49 58.53-23.39c2.19.72 4.31 1.43 6.24 2.59 8.51 5.09 17.57 8.74 26.27 13.47q-45.97 57.66-111.17 90.11-19.42-10.1-36.88-22.27c-16.34-11.4-34.15-28.07-49.68-39.28l-19.65-13.97c-4.57-3.25-8.01-7.79-5.85-14.1q4.07-4.45 5.83-8.3 4.46-9.77 5.85-19.91.32-2.32.58-3.55a8.38 1.16-74 0 0 .49-3.45q.17-8.68-.03-20.61-.04-2.18-.54-3.68c-.55-1.63-.34-3.55-.56-4.95q-2.76-17.63-8.9-34.52-1.53-4.2-11.41-30.14-6.52-17.12-10.19-39.22c-.52-3.15-.09-5.97-1.08-8.8a5.22 5.1 35.3 0 1-.29-1.58c-.09-3.46.03-6.72-.38-10.61q-.75-7.21-.31-12.61.88-10.71.69-12.44a3.91 3.88 52.4 0 1 .23-1.84c1.04-2.67.64-6.01 1.17-9q.64-3.58 1.25-7.29-.17 9.37-.59 12.51c-4.27 31.78-.08 62.85 11.66 93.54q8.88 23.24 11.27 29.48 1.4 3.66 2.89 9.61a1.61 1.58-78.1 0 0 .56.88c15.47 12.27 24.68 17.53 45.62 30.8q14.83 9.39 28.28 21.02"/>
  <path fill="#4cc2ec" fill-opacity=".992" d="M606.05 480.77c-18.27-3.13-30.73-11.41-45.32-24.4-13.57-12.07-26.22-25.52-31.73-43.27q28.92-4.79 57.84-10.17 10.85-2.02 14.69-2.8 12.29-2.49 24.49-6.05 18.86-5.5 36.57-14.43c6.75-3.4 13.69-7.96 20.08-11.46q1.05-.58 3.67-.16a.67.67 0 0 1 .56.64q.17 4.87.02 5.79c-7.59 45.49-35.56 85.35-77.78 104.92q-1.8.84-3.09 1.39"/>
  <path fill="#6165e4" fill-opacity=".992" d="m383.31 696.09-7.73 1.69a.65.34-35.5 0 1-.15.02q-5.82.45-11.49 1.9a1.6 1.36-49.7 0 1-.24.04l-20.69 2.04q-12.52-8.62-17.66-12.42c-12.12-8.96-27.78-21.39-40.91-30.66-25.89-18.26-45.13-31.72-66.15-47.63-16.86-12.77-35.58-25.54-52-39.78-8.1-7.03-18.74-17.75-28.17-25.43-10.9-8.87-20.25-16.82-32.68-28.52-13.45-12.65-19.19-17.79-35.34-32.4-9.97-9.02-20.41-19.39-29.2-26.54-14.71-11.98-23.96-19.51-34.92-30.68a.16.15-72.7 0 0-.26.14l2.67 16.95a.03.02 9.2 0 1-.04.02h-.03a.15.09 85.8 0 1-.07-.1q-3.04-13.98-4.51-28.16-.58-6.01-1.25-11.98-.74-6.65-.67-10.39c.09-4.72-.3-9.55.23-14.42a.5.49 7.1 0 1 .57-.44c10.7 1.85 18.99 8.72 26.75 16.25 8.74 8.48 18.34 18.45 29.39 28.54q22.97 20.98 33.57 31.76 41.09 41.81 75.06 73.81 24.98 23.53 58.34 47.99 31.23 22.9 52.22 36.72c14.9 9.82 27.69 18.19 39.44 26.58q20.98 14.96 41.65 29.49c9.65 6.78 18.51 14.73 24.27 25.61"/>
  <path fill="#6b5de5" fill-opacity=".992" d="M343.01 701.78q-8.31.21-16.56.55-8.17.33-12.89.01c-7.76-.52-15.14-.26-23.22-1.34q-6.03-.81-10.31-1.15-4.05-.33-20.11-3.42-4.97-.96-8.6-1.85-22.98-5.61-39.94-11.93-39.84-14.84-75.31-39.95-31.42-22.25-55.96-50.57-48.44-55.91-68.14-128.11-6.06-22.21-8.72-43.1l.49-4.35q1.47 14.18 4.51 28.16a.15.09 85.8 0 0 .07.1h.03a.03.02 9.2 0 0 .04-.02l-2.67-16.95a.16.15-72.7 0 1 .26-.14c10.96 11.17 20.21 18.7 34.92 30.68 8.79 7.15 19.23 17.52 29.2 26.54 16.15 14.61 21.89 19.75 35.34 32.4 12.43 11.7 21.78 19.65 32.68 28.52 9.43 7.68 20.07 18.4 28.17 25.43 16.42 14.24 35.14 27.01 52 39.78 21.02 15.91 40.26 29.37 66.15 47.63 13.13 9.27 28.79 21.7 40.91 30.66q5.14 3.8 17.66 12.42m126.27-274.64q-.11-.3-.07.25-.16.02-.26 0a.2.16 40.2 0 1-.07-.35q.13-.03.4.1"/>
  <path fill="#44afed" fill-opacity=".992" d="M468.08 428.56a.18.18 0 0 1-.09.24l-1.42.67a8.13.44-25.1 0 1-7.55 3.05l-.09-.19a8.13.44-25.1 0 1 7.18-3.84l1.42-.67a.18.18 0 0 1 .24.09z"/>
  <path fill="#4099ec" fill-opacity=".992" d="M569.57 579.96c-8.7-4.73-17.76-8.38-26.27-13.47-1.93-1.16-4.05-1.87-6.24-2.59q38.04-20.31 68.44-50.65.65-.65 1.27-.71a.96.96 0 0 1 1.04 1.14q-.35 1.75-1.26 4.16-4.21 11.12-10.39 22.33-11.62 21.06-26.59 39.79"/>
</svg>
